<?xml version="1.0" encoding="UTF-8"?>
<!DOCTYPE svg PUBLIC "-//W3C//DTD SVG 1.1//EN" "http://www.w3.org/Graphics/SVG/1.1/DTD/svg11.dtd">
<!-- Creator: CorelDRAW -->
<svg xmlns="http://www.w3.org/2000/svg" xml:space="preserve" width="70px" height="70px" version="1.1" style="shape-rendering:geometricPrecision; text-rendering:geometricPrecision; image-rendering:optimizeQuality; fill-rule:evenodd; clip-rule:evenodd"
viewBox="0 0 70 70"
 xmlns:xlink="http://www.w3.org/1999/xlink"
 xmlns:xodm="http://www.corel.com/coreldraw/odm/2003">
 <defs>
  <style type="text/css">
   <![CDATA[
    .fil3 {fill:#0A002A;fill-rule:nonzero}
    .fil6 {fill:#60AAD1;fill-rule:nonzero}
    .fil0 {fill:#67B6DF;fill-rule:nonzero}
    .fil7 {fill:#9A0C31;fill-rule:nonzero}
    .fil8 {fill:#AF0F38;fill-rule:nonzero}
    .fil5 {fill:#CDCDCD;fill-rule:nonzero}
    .fil2 {fill:#DBDBDB;fill-rule:nonzero}
    .fil4 {fill:white;fill-rule:nonzero}
    .fil1 {fill:#230F52;fill-rule:nonzero;fill-opacity:0.101961}
   ]]>
  </style>
 </defs>
 <g id="Camada_x0020_1">
  <metadata id="CorelCorpID_0Corel-Layer"/>
  <g id="_2929988542464">
   <g>
    <g>
     <path class="fil0" d="M13.21 33.41c0,0 -4.05,-1.85 -2.03,-6.49l-1.21 -2.16c0,0 -3.03,3.02 -1.34,7.17 1.7,4.16 5.07,3.92 5.07,3.92l-0.49 -2.44z"/>
     <path class="fil1" d="M9.97 24.76l0.21 0.38c-0.78,1.14 -1.94,3.5 -0.75,6.44 1.15,2.81 3.07,3.61 4.18,3.83l0.09 0.44c0,0 -3.37,0.24 -5.07,-3.92 -1.69,-4.15 1.34,-7.17 1.34,-7.17z"/>
     <path class="fil2" d="M18.72 51.13c1.12,2.84 4.34,4.23 7.18,3.11l6.01 -2.37c2.84,-1.13 4.23,-4.34 3.11,-7.19l-5.86 -14.8c-1.12,-2.84 -4.34,-4.24 -7.18,-3.11l-6.01 2.38c-2.84,1.12 -4.23,4.33 -3.11,7.18l5.86 14.8z"/>
     <path class="fil1" d="M14 30.48c-0.75,1.39 -0.91,3.09 -0.28,4.68l5.85 14.8c1.13,2.84 4.34,4.24 7.18,3.11l6.01 -2.37c0.77,-0.31 1.43,-0.77 1.97,-1.34 -0.6,1.1 -1.57,2.01 -2.82,2.51l-6.01 2.37c-2.84,1.12 -6.06,-0.27 -7.18,-3.11l-5.86 -14.8c-0.82,-2.07 -0.3,-4.33 1.14,-5.85z"/>
     <path class="fil2" d="M9.59 11.76c-2.82,6.61 0.8,14.5 8.09,17.61 7.29,3.12 15.5,0.29 18.32,-6.33 2.83,-6.61 -0.79,-14.5 -8.08,-17.61 -7.3,-3.12 -15.5,-0.29 -18.33,6.33z"/>
     <path class="fil3" d="M11.43 14.38c-2.64,6.17 0.39,13.4 6.79,16.13 6.38,2.73 13.71,-0.06 16.35,-6.24 2.64,-6.18 -0.4,-13.4 -6.79,-16.14 -6.39,-2.73 -13.71,0.07 -16.35,6.25z"/>
     <path class="fil4" d="M31.08 28.85c-3.84,3.66 -9.93,5.23 -16.81,1.1 -6.54,-3.92 -8.17,-10.3 -5.13,-17.4 0.92,-2.14 2.28,-3.95 3.94,-5.35 0,0 -7.32,13.35 3,19.7 9.39,5.78 15,1.95 15,1.95z"/>
     <g>
      <path class="fil2" d="M10.15 26.33l1.11 -0.77c0.66,-0.48 0.48,-1.87 -0.41,-3.1 -0.89,-1.24 -2.15,-1.85 -2.81,-1.37l-1.03 0.72 3.14 4.52z"/>
      <path class="fil4" d="M7.01 21.81c-0.66,0.48 -0.47,1.86 0.42,3.1 0.89,1.23 2.14,1.85 2.8,1.37 0.66,-0.47 0.48,-1.86 -0.41,-3.09 -0.89,-1.24 -2.15,-1.86 -2.81,-1.38z"/>
     </g>
     <path class="fil4" d="M32.08 13.86c0,0 -0.81,-2.19 -3.78,-3.83 0,0 -2.31,-1.35 -2.68,-0.5 0,0 -0.56,0.92 1.52,1.44 0,0 3.25,0.78 4.94,2.89z"/>
     <g>
      <g>
       <path class="fil4" d="M50.28 27.08c-1.69,0.28 -2.84,1.9 -2.55,3.61l0.26 1.58c0.28,1.72 1.88,2.88 3.58,2.6 1.69,-0.28 2.83,-1.9 2.55,-3.62l-0.26 -1.57c-0.29,-1.72 -1.89,-2.88 -3.58,-2.6z"/>
       <path class="fil4" d="M53.32 30.58c-0.57,0.03 -1,0.52 -0.97,1.09 0.04,0.57 0.53,1 1.09,0.96l3.09 -0.19c0.58,-0.03 1.01,-0.53 0.97,-1.09 -0.04,-0.57 -0.52,-1 -1.09,-0.97l-3.09 0.2z"/>
       <path class="fil4" d="M53.34 28.57c-0.61,0.16 -0.98,0.73 -0.84,1.29 0.15,0.55 0.76,0.86 1.36,0.71l3.29 -0.86c0.61,-0.16 0.98,-0.73 0.84,-1.29 -0.15,-0.55 -0.75,-0.87 -1.36,-0.71l-3.29 0.86z"/>
       <path class="fil4" d="M51.64 27.29c-0.51,0.36 -0.67,1.03 -0.34,1.5 0.32,0.46 1,0.56 1.51,0.2l2.8 -1.93c0.52,-0.35 0.67,-1.02 0.35,-1.49 -0.32,-0.47 -1,-0.56 -1.52,-0.21l-2.8 1.93z"/>
       <path class="fil4" d="M49.13 28.19c-0.23,0.49 0,1.09 0.52,1.33 0.51,0.25 1.12,0.05 1.35,-0.45l1.27 -2.67c0.23,-0.5 0,-1.09 -0.51,-1.34 -0.52,-0.24 -1.12,-0.04 -1.36,0.45l-1.27 2.68z"/>
       <path class="fil4" d="M52.32 31.89c-0.51,-0.19 -1.08,0.08 -1.29,0.61 -0.2,0.53 0.05,1.12 0.55,1.32l2.77 1.06c0.51,0.19 1.09,-0.08 1.29,-0.61 0.2,-0.54 -0.04,-1.13 -0.55,-1.32l-2.77 -1.06z"/>
      </g>
      <g>
       <g>
        <path class="fil1" d="M53.48 28.53l1.99 -1.88c0.35,-0.37 0.55,-0.67 0.51,-1.05 0.3,0.47 0.14,1.11 -0.37,1.46l-2.13 1.47z"/>
        <path class="fil1" d="M51.94 27.09l0.18 -1.11c0.06,-0.23 0.11,-0.6 -0.12,-0.76 0.79,0.66 0.06,1.57 -0.06,1.87z"/>
        <path class="fil1" d="M51.42 34.46c0.5,-0.08 0.94,-0.28 1.32,-0.56l1.47 0.56c0.51,0.2 1.09,-0.08 1.29,-0.61 0.06,-0.16 0.08,-0.34 0.06,-0.51 0.16,0.27 0.2,0.61 0.08,0.93 -0.2,0.53 -0.78,0.8 -1.29,0.61l-1.47 -0.57c-0.38,0.28 -0.82,0.48 -1.31,0.56 -1.6,0.26 -3.11,-0.75 -3.52,-2.31 0.55,1.32 1.93,2.14 3.37,1.9z"/>
        <path class="fil1" d="M54 30.53l3.01 -1.24c0.59,-0.29 0.91,-0.63 0.86,-1.13 0.05,0.08 0.09,0.17 0.12,0.26 0.14,0.56 -0.23,1.13 -0.84,1.29l-3.15 0.82z"/>
        <path class="fil1" d="M54.95 32.54c0,0 -0.8,0.05 -0.8,0.05l2.24 -0.56c0.59,-0.16 1,-0.53 0.97,-1.1 0,-0.02 -0.01,-0.03 -0.01,-0.05 0.08,0.13 0.14,0.29 0.15,0.47 0.04,0.56 -0.39,1.06 -0.97,1.09l-1.58 0.1z"/>
       </g>
      </g>
      <path class="fil4" d="M47.33 34.6c0,0 -9.7,2.96 -11.69,-0.33l2.57 -6.64c0,0 3.15,1.88 8.19,0.97 0,0 -0.37,0.29 0.35,3.74l0.58 2.26z"/>
      <g>
       <path class="fil1" d="M47.02 33.37l0.31 1.23c0,0 -9.7,2.96 -11.69,-0.33l0.34 -0.88c2.29,2.29 9.49,0.42 11.04,-0.02z"/>
       <path class="fil4" d="M46.34 28.61c0.02,0 0.04,0 0.06,-0.01 0,0 -0.03,0.02 -0.05,0.12 -0.01,-0.04 -0.01,-0.07 -0.01,-0.11z"/>
      </g>
      <path class="fil0" d="M47.07 28.12c-0.59,0.11 -0.97,0.76 -0.84,1.45l0.84 4.43c0.13,0.69 0.72,1.16 1.31,1.05 0.6,-0.11 0.97,-0.76 0.84,-1.45l-0.83 -4.44c-0.13,-0.69 -0.72,-1.15 -1.32,-1.04z"/>
      <path class="fil1" d="M47.77 34.88c0.59,-0.11 0.97,-0.76 0.84,-1.45l-0.84 -4.44c-0.07,-0.39 -0.29,-0.7 -0.58,-0.88 0.56,-0.03 1.08,0.41 1.2,1.05l0.83 4.44c0.13,0.69 -0.24,1.34 -0.84,1.45 -0.26,0.05 -0.51,-0.02 -0.73,-0.16 0.04,0 0.07,0 0.12,-0.01z"/>
     </g>
     <path class="fil4" d="M35.08 25.2c0,0 -0.78,-0.8 -2.52,-0.76 -1.73,0.05 -8.12,0.24 -8.12,0.24 0,0 -1.96,-0.02 -3.67,1.64 -1.71,1.66 -4.97,4.47 -4.97,4.47 0,0 -0.94,0.81 -0.44,2.16 0.5,1.36 5.25,12.29 5.25,12.29 0,0 0.99,1.6 0.45,2.79 -0.54,1.19 0.62,1.5 0.62,1.5 0,0 0.91,0.11 0.62,1.22 -0.29,1.12 1.91,7.76 5.59,5.65 3.69,-2.11 14.63,-7.77 14.63,-7.77 0,0 2.06,-1.02 0.84,-3.35 -1.23,-2.33 -2.02,-1.19 -1.48,-3.32 0,0 0.35,-1.13 -0.42,-1.55 -0.76,-0.42 -0.23,-0.85 -0.23,-0.85 0,0 0.72,-0.46 0.4,-1.2 -0.32,-0.74 1.06,-1.54 -0.94,-2.39l-5.61 -10.77z"/>
     <g>
      <g>
       <path class="fil1" d="M41.23 39.56c0,0 -0.03,0.03 -0.07,0.07 0.02,-0.66 0.87,-1.38 -0.89,-2.13l-5.61 -10.76c0,0 -0.78,-0.81 -2.52,-0.76 -1.73,0.04 -8.11,0.23 -8.11,0.23 0,0 -1.97,-0.02 -3.68,1.65 -1.71,1.66 -4.97,4.46 -4.97,4.46 0,0 -0.06,0.06 -0.14,0.16 -0.17,-1.07 0.56,-1.69 0.56,-1.69 0,0 3.26,-2.81 4.97,-4.47 1.71,-1.66 3.67,-1.64 3.67,-1.64 0,0 6.39,-0.19 8.12,-0.24 1.74,-0.04 2.52,0.76 2.52,0.76l5.61 10.77c2,0.85 0.62,1.65 0.94,2.39 0.32,0.74 -0.4,1.2 -0.4,1.2z"/>
       <path class="fil1" d="M42.94 46.81c-1.23,-2.33 -2.01,-1.18 -1.47,-3.31 0,0 0.34,-1.14 -0.42,-1.56 -0.77,-0.42 -0.24,-0.84 -0.24,-0.84 0,0 0.46,-0.31 0.47,-0.81 0.05,0.04 0.11,0.08 0.18,0.12 0.77,0.42 0.42,1.55 0.42,1.55 -0.54,2.13 0.25,0.99 1.48,3.32 0.66,1.26 0.36,2.13 -0.05,2.67 -0.04,-0.34 -0.15,-0.71 -0.37,-1.14z"/>
      </g>
     </g>
     <path class="fil5" d="M29.27 27.4l-1.46 2.6c-0.17,0.33 -0.21,0.75 -0.08,1.15l2.6 8.92c0.25,0.76 0.91,0.96 1.71,0.96l7.64 -0.59c0.42,-0.14 0.71,-0.47 0.83,-0.89l0.87 -1.8 -12.11 -10.35z"/>
     <path class="fil5" d="M26.39 37.83c-0.55,0.27 -0.69,1.11 -0.31,1.87 0.37,0.77 1.12,1.17 1.67,0.9 0.55,-0.27 0.69,-1.11 0.31,-1.87 -0.37,-0.77 -1.12,-1.17 -1.67,-0.9z"/>
     <path class="fil5" d="M25.11 32c-0.46,0.22 -0.57,0.92 -0.26,1.56 0.32,0.63 0.94,0.97 1.4,0.74 0.45,-0.22 0.57,-0.92 0.25,-1.55 -0.31,-0.64 -0.93,-0.98 -1.39,-0.75z"/>
     <path class="fil1" d="M27.85 39.01c-0.37,-0.76 -1.12,-1.17 -1.67,-0.9 -0.06,0.03 -0.12,0.08 -0.17,0.12 0.08,-0.17 0.21,-0.32 0.38,-0.4 0.55,-0.27 1.3,0.13 1.67,0.9 0.33,0.67 0.26,1.4 -0.13,1.75 0.19,-0.39 0.18,-0.95 -0.08,-1.47z"/>
     <path class="fil1" d="M26.3 33.03c-0.32,-0.64 -0.94,-0.97 -1.4,-0.75 -0.04,0.02 -0.09,0.05 -0.13,0.09 0.08,-0.17 0.19,-0.3 0.34,-0.37 0.46,-0.23 1.08,0.11 1.39,0.75 0.28,0.56 0.22,1.18 -0.12,1.46 0.14,-0.32 0.12,-0.76 -0.08,-1.18z"/>
     <path class="fil2" d="M32.11 37.83c0.23,0.68 0.83,0.89 1.48,0.88l7.14 -0.39c0.59,-0.2 0.89,-0.91 0.66,-1.59l-3.03 -9.22c-0.23,-0.68 -0.76,-0.97 -1.47,-0.88l-7.15 0.39c-0.59,0.2 -0.89,0.91 -0.66,1.59l3.03 9.22z"/>
     <path class="fil2" d="M27.11 38.45c-0.35,0.18 -0.47,0.63 -0.28,0.99 0.2,0.36 0.63,0.51 0.98,0.33l2.78 -1.47c0.35,-0.19 0.48,-0.63 0.28,-0.99 -0.19,-0.37 -0.63,-0.52 -0.98,-0.33l-2.78 1.47z"/>
     <path class="fil1" d="M27.11 38.45l2.78 -1.47c0.35,-0.19 0.79,-0.04 0.98,0.33 0.05,0.09 0.08,0.18 0.09,0.28 -0.21,-0.3 -0.61,-0.41 -0.93,-0.25l-2.78 1.47c-0.26,0.14 -0.39,0.42 -0.36,0.71 -0.02,-0.03 -0.04,-0.05 -0.06,-0.08 -0.19,-0.36 -0.07,-0.81 0.28,-0.99z"/>
     <path class="fil3" d="M32.08 31.72c0.12,0.37 0.55,0.56 0.97,0.42l4.39 -0.29c0.42,-0.14 0.67,-0.55 0.55,-0.92l-0.81 -2.55c-0.12,-0.37 -0.42,-0.48 -0.98,-0.42l-4.39 0.3c-0.42,0.13 -0.66,0.54 -0.54,0.91l0.81 2.55z"/>
     <g>
      <path class="fil4" d="M34.89 54.28c0,0 0.69,-0.54 -0.32,-2.67 -1,-2.13 -2.81,-9.45 -12.46,-4.46l7.15 11.55c0,0 0.94,0.9 1.85,0.3 0.9,-0.6 3.78,-4.72 3.78,-4.72z"/>
      <g>
       <path class="fil0" d="M31.58 51.39l-1.79 -2.52c-0.53,-0.74 -0.3,-1.81 0.52,-2.39 0.17,-0.12 0.37,-0.21 0.56,-0.27 2.12,1.26 2.99,3.73 3.55,5.06 -0.11,0.15 -0.25,0.3 -0.41,0.41 -0.81,0.58 -1.9,0.45 -2.43,-0.29z"/>
      </g>
      <path class="fil1" d="M33.92 55.34c0,0 0.69,-0.54 -0.31,-2.67 -0.96,-2.03 -2.95,-9.26 -11.5,-5.52 9.65,-4.99 11.46,2.33 12.46,4.46 1.01,2.13 0.32,2.67 0.32,2.67 0,0 0.07,0.15 -0.97,1.06 -0.31,0.17 0,0 0,0z"/>
      <path class="fil0" d="M39.79 65.81c0,0 -1.85,0.58 -4.43,-3.14 0,0 -1.9,-2.74 -4.28,-3.28 0,0 -1.12,-0.02 -0.71,-1.19 0.41,-1.17 4.3,-4.37 4.3,-4.37 0,0 0.33,-0.42 1.2,0.34 0.87,0.75 2.28,1.85 3.37,4.26 0,0 0.59,-0.48 2.78,-2.74 2.2,-2.26 3.12,0.41 3.12,0.41l-5.35 9.71z"/>
      <path class="fil0" d="M39.79 65.81c0,0 -1.85,0.58 -4.43,-3.14 0,0 -1.9,-2.74 -4.28,-3.28 0,0 -1.12,-0.02 -0.71,-1.19 0.41,-1.17 4.3,-4.37 4.3,-4.37 0,0 0.33,-0.42 1.2,0.34 0.87,0.75 2.28,1.85 3.37,4.26 0,0 0.59,-0.48 2.78,-2.74 2.2,-2.26 3.12,0.41 3.12,0.41l-5.35 9.71z"/>
      <g>
       <g>
        <path class="fil1" d="M44.2 56.76c0,0 -0.61,-1.79 -2.04,-1.2 2.1,-2.02 2.98,0.54 2.98,0.54l-5.35 9.71c0,0 -0.21,0.06 -0.58,0.01l4.99 -9.06z"/>
        <path class="fil1" d="M38.3 59.09c-1.09,-2.42 -2.5,-3.51 -3.37,-4.26 -0.42,-0.37 -0.71,-0.46 -0.9,-0.46 0.38,-0.33 0.64,-0.54 0.64,-0.54 0,0 0.33,-0.42 1.2,0.34 0.85,0.74 2.22,1.8 3.3,4.11 -0.65,0.63 -0.87,0.81 -0.87,0.81z"/>
       </g>
      </g>
      <path class="fil2" d="M39.45 62.8c-0.65,1.25 -0.6,2.56 0.11,2.93 0.71,0.37 1.82,-0.34 2.47,-1.59l2.85 -5.48c0.64,-1.25 0.59,-2.56 -0.12,-2.93 -0.71,-0.37 -1.81,0.34 -2.46,1.59l-2.85 5.48z"/>
      <path class="fil1" d="M45.04 56.69c-0.71,-0.36 -1.81,0.35 -2.46,1.59l-2.86 5.49c-0.3,0.59 -0.45,1.19 -0.44,1.71 -0.42,-0.55 -0.37,-1.63 0.17,-2.68l2.85 -5.48c0.65,-1.25 1.75,-1.96 2.46,-1.59 0.38,0.19 0.56,0.65 0.57,1.22 -0.08,-0.1 -0.17,-0.2 -0.29,-0.26z"/>
     </g>
     <g>
      <g>
       <path class="fil4" d="M16.06 50.43c0.67,-1.61 -0.11,-3.48 -1.75,-4.16l-1.5 -0.63c-1.64,-0.68 -3.51,0.07 -4.19,1.69 -0.67,1.61 0.11,3.48 1.75,4.16l1.5 0.62c1.64,0.69 3.52,-0.07 4.19,-1.68z"/>
       <path class="fil4" d="M11.39 51.17c0.28,-0.52 0.09,-1.15 -0.42,-1.43 -0.51,-0.28 -1.15,-0.09 -1.43,0.42l-1.5 2.78c-0.28,0.51 -0.09,1.15 0.42,1.43 0.51,0.27 1.15,0.08 1.43,-0.43l1.5 -2.77z"/>
       <path class="fil4" d="M13.11 52.27c0.19,-0.61 -0.1,-1.24 -0.66,-1.42 -0.55,-0.17 -1.16,0.18 -1.35,0.79l-1.03 3.31c-0.19,0.61 0.1,1.25 0.66,1.42 0.55,0.17 1.15,-0.18 1.35,-0.79l1.03 -3.31z"/>
       <path class="fil4" d="M15.13 51.49c-0.03,-0.64 -0.52,-1.13 -1.1,-1.1 -0.58,0.02 -1.03,0.56 -1,1.2l0.16 3.46c0.02,0.64 0.52,1.14 1.1,1.11 0.58,-0.03 1.03,-0.56 1,-1.2l-0.16 -3.47z"/>
       <path class="fil4" d="M15.71 48.84c-0.3,-0.47 -0.94,-0.59 -1.43,-0.28 -0.48,0.31 -0.64,0.95 -0.34,1.42l1.63 2.54c0.3,0.47 0.94,0.59 1.43,0.28 0.49,-0.32 0.64,-0.95 0.34,-1.42l-1.63 -2.54z"/>
       <path class="fil4" d="M10.79 49.59c0.44,-0.33 0.52,-0.98 0.17,-1.44 -0.35,-0.46 -0.99,-0.57 -1.44,-0.24l-2.41 1.82c-0.44,0.34 -0.52,0.98 -0.17,1.45 0.35,0.46 0.99,0.57 1.44,0.23l2.41 -1.82z"/>
      </g>
      <g>
       <g>
        <path class="fil1" d="M16.4 52.35c0.49,-0.31 0.65,-0.95 0.35,-1.41l-1.08 -1.69c0.15,-1.03 -0.22,-2.06 -0.97,-2.78 1.14,0.67 1.76,1.96 1.56,3.22l1.08 1.69c0.3,0.47 0.15,1.1 -0.34,1.42 -0.49,0.31 -1.13,0.19 -1.43,-0.28l-0.02 -0.04c0.28,0.08 0.59,0.04 0.85,-0.13z"/>
        <path class="fil1" d="M13.7 55.71c0.58,-0.02 0.8,-0.3 0.99,-1.2l0.46 -2.65c0.05,0.09 -0.07,-0.06 0,0l0.14 3.1c0.03,0.64 -0.42,1.17 -1,1.2 -0.37,0.02 -0.7,-0.18 -0.91,-0.49 0.1,0.03 0.21,0.05 0.32,0.04z"/>
        <path class="fil1" d="M9.32 53.73l1.73 -1.9 -1.21 2.19c-0.42,0.58 -1.03,0.54 -1.38,0.35 -0.16,-0.09 -0.29,-0.22 -0.38,-0.36 0.47,0.13 0.87,0.04 1.24,-0.28z"/>
        <path class="fil1" d="M8.1 51.17l1.1 -0.38 -0.9 0.67c-0.55,0.33 -1.11,0.04 -1.36,-0.28 -0.01,-0.02 -0.02,-0.04 -0.04,-0.06 0.3,0.08 0.53,0.27 1.2,0.05z"/>
        <path class="fil1" d="M11.48 55.13l1.59 -2.72 -0.99 3.17c-0.2,0.61 -0.8,0.96 -1.35,0.79 -0.24,-0.08 -0.43,-0.24 -0.55,-0.44 0.54,0.14 0.82,0.01 1.3,-0.8z"/>
       </g>
      </g>
      <path class="fil4" d="M15.94 45.45l-4.93 -1.27c0,0 -0.73,-2.03 1.69,-8.31l1.42 -3.22c0.84,-1.91 3.07,-2.77 4.98,-1.93 1.9,0.85 2.76,3.07 1.92,4.98 0,0 -1.3,4.36 -5.08,9.75z"/>
      <path class="fil1" d="M19.32 35.47c0.84,-1.91 -0.02,-4.14 -1.92,-4.98 -0.07,-0.02 -0.13,-0.05 -0.19,-0.07 0.62,-0.06 1.27,0.03 1.89,0.3 1.9,0.85 2.76,3.07 1.92,4.98 0,0 -1.3,4.36 -5.08,9.75l-1.58 -0.4c3.69,-5.31 4.96,-9.58 4.96,-9.58z"/>
      <g>
       <path class="fil0" d="M13.41 34.27c0.36,-0.12 0.77,-0.13 1.18,0 0.94,0.32 1.48,1.27 1.19,2.13l-0.97 2.93c-0.28,0.87 -1.28,1.32 -2.23,1 -0.48,-0.16 -0.85,-0.48 -1.07,-0.88 0.27,-1 0.65,-2.18 1.19,-3.58l0.71 -1.6z"/>
      </g>
      <path class="fil0" d="M9.62 44.96c-0.14,0.59 0.3,1.2 0.97,1.37l4.39 1.07c0.68,0.16 1.35,-0.18 1.5,-0.77 0.14,-0.59 -0.3,-1.2 -0.98,-1.36l-4.39 -1.08c-0.68,-0.16 -1.34,0.18 -1.49,0.77z"/>
      <path class="fil1" d="M15.96 46.97c0.14,-0.59 -0.3,-1.2 -0.98,-1.37l-4.38 -1.07c-0.27,-0.06 -0.54,-0.05 -0.77,0.03 0.28,-0.33 0.78,-0.49 1.28,-0.37l4.39 1.08c0.68,0.16 1.12,0.77 0.98,1.36 -0.09,0.36 -0.37,0.62 -0.73,0.74 0.1,-0.11 0.17,-0.25 0.21,-0.4z"/>
     </g>
     <g>
      <path class="fil4" d="M52.34 49.17c0,0 -4.12,-8.62 -12.63,-6.82 -3.07,0.64 -4.35,1.28 -4.35,1.28l1.25 7.12c0,0 6.94,0.53 10.84,3.56 0,0 0.92,0.6 1.59,0.12l3.3 -5.26z"/>
      <g>
       <path class="fil0" d="M49.17 47.36l-2.44 -1.9c-0.67,-0.53 -0.78,-1.53 -0.27,-2.3 2.2,1.09 3.77,2.83 4.73,4.16 -0.61,0.45 -1.44,0.5 -2.02,0.04z"/>
      </g>
      <path class="fil1" d="M39.86 43.16c-2.23,0.24 -3.84,0.22 -4.5,0.47 0,0 1.28,-0.64 4.35,-1.28 8.51,-1.8 12.63,6.82 12.63,6.82l-0.61 0.97c-0.79,-1.45 -4.65,-7.78 -11.87,-6.98z"/>
      <path class="fil0" d="M57.85 60.74c0,0 -1.86,0.58 -4.44,-3.15 0,0 -1.68,-1.81 -4.06,-2.35 0,0 -1.01,-0.27 -0.6,-1.44 0.41,-1.18 3.26,-4.84 3.26,-4.84 0,0 0.33,-0.41 1.2,0.34 0.86,0.76 2.99,1.65 4.08,4.06 0,0 0.59,-0.48 2.79,-2.74 2.19,-2.26 3.11,0.41 3.11,0.41l-5.34 9.71z"/>
      <path class="fil1" d="M62.62 51.69c0,0 -0.92,-2.68 -3.11,-0.42 -2.2,2.26 -2.41,2.64 -2.41,2.64 -1.09,-2.41 -3.6,-3.19 -4.46,-3.95 -0.57,-0.49 -0.9,-0.49 -1.07,-0.43 0.27,-0.35 0.44,-0.57 0.44,-0.57 0,0 0.33,-0.41 1.2,0.34 0.86,0.76 2.99,1.65 4.08,4.06 0,0 0.59,-0.48 2.79,-2.74 2.19,-2.26 3.11,0.41 3.11,0.41l-5.34 9.71c0,0 -0.09,0.02 -0.23,0.03l5 -9.08z"/>
      <path class="fil2" d="M57.5 57.73c-0.65,1.25 -0.6,2.56 0.11,2.93 0.72,0.37 1.82,-0.34 2.47,-1.59l2.85 -5.48c0.65,-1.25 0.6,-2.56 -0.11,-2.93 -0.72,-0.37 -1.82,0.34 -2.47,1.59l-2.85 5.48z"/>
      <path class="fil1" d="M63 51.67c-0.71,-0.37 -1.81,0.34 -2.46,1.59l-2.86 5.48c-0.27,0.53 -0.41,1.06 -0.44,1.54 -0.32,-0.58 -0.24,-1.58 0.26,-2.55l2.85 -5.48c0.65,-1.25 1.75,-1.96 2.47,-1.59 0.4,0.21 0.59,0.74 0.55,1.39 -0.09,-0.17 -0.21,-0.3 -0.37,-0.38z"/>
     </g>
     <path class="fil2" d="M25.65 32.43c-0.29,0.16 -0.39,0.53 -0.23,0.83 0.16,0.31 0.52,0.43 0.81,0.28l2.32 -1.23c0.29,-0.15 0.39,-0.52 0.23,-0.83 -0.16,-0.3 -0.52,-0.42 -0.81,-0.27l-2.32 1.22z"/>
     <path class="fil1" d="M28.77 31.87c-0.16,-0.3 -0.52,-0.42 -0.81,-0.27l-2.32 1.22c-0.13,0.07 -0.21,0.19 -0.26,0.31 -0.08,-0.27 0.02,-0.56 0.27,-0.7l2.32 -1.22c0.29,-0.15 0.65,-0.03 0.81,0.27 0.09,0.17 0.09,0.36 0.03,0.52 -0.01,-0.04 -0.02,-0.09 -0.04,-0.13z"/>
    </g>
    <g>
     <path class="fil6" d="M32.22 33.84c-0.22,0.48 -0.01,1.06 0.48,1.28 0.49,0.23 1.07,0.01 1.29,-0.48l0.13 -0.35 -1.82 -0.68 -0.08 0.23z"/>
     <path class="fil0" d="M32.3 33.61c-0.19,0.43 0.04,0.96 0.53,1.18 0.49,0.22 1.05,0.06 1.24,-0.38 0.2,-0.43 -0.03,-0.96 -0.52,-1.18 -0.49,-0.22 -1.05,-0.05 -1.25,0.38z"/>
     <path class="fil7" d="M34.15 37.06c-0.18,0.38 -0.01,0.83 0.37,1.01 0.38,0.17 0.83,0 1.01,-0.38l0.1 -0.28 -1.42 -0.53 -0.06 0.18z"/>
     <path class="fil8" d="M34.21 36.88c-0.15,0.34 0.03,0.75 0.42,0.93 0.38,0.17 0.81,0.04 0.97,-0.3 0.15,-0.33 -0.04,-0.75 -0.42,-0.92 -0.38,-0.18 -0.81,-0.05 -0.97,0.29z"/>
     <path class="fil7" d="M37.4 36.82c-0.17,0.38 0,0.83 0.38,1.01 0.38,0.17 0.83,0 1,-0.38l0.1 -0.27 -1.41 -0.54 -0.07 0.18z"/>
     <path class="fil8" d="M37.47 36.64c-0.15,0.34 0.03,0.75 0.41,0.93 0.38,0.17 0.82,0.04 0.97,-0.3 0.15,-0.33 -0.03,-0.75 -0.41,-0.92 -0.38,-0.18 -0.82,-0.04 -0.97,0.29z"/>
     <path class="fil6" d="M37.2 33.53c-0.23,0.48 -0.01,1.06 0.48,1.29 0.49,0.22 1.06,0 1.29,-0.49l0.13 -0.35 -1.82 -0.68 -0.08 0.23z"/>
     <path class="fil0" d="M37.28 33.3c-0.19,0.43 0.04,0.96 0.53,1.18 0.49,0.22 1.05,0.06 1.24,-0.38 0.2,-0.43 -0.04,-0.96 -0.53,-1.18 -0.49,-0.22 -1.04,-0.05 -1.24,0.38z"/>
     <path class="fil6" d="M34.81 33.67c-0.23,0.49 -0.01,1.07 0.48,1.29 0.48,0.22 1.06,0.01 1.29,-0.48l0.13 -0.35 -1.82 -0.69 -0.08 0.23z"/>
     <path class="fil0" d="M34.89 33.44c-0.19,0.44 0.04,0.97 0.53,1.19 0.49,0.22 1.04,0.05 1.24,-0.38 0.2,-0.43 -0.04,-0.96 -0.53,-1.18 -0.49,-0.22 -1.04,-0.06 -1.24,0.37z"/>
    </g>
   </g>
   <path class="fil4" d="M24.37 9.7c-0.13,0.38 -0.54,0.59 -0.92,0.46 -0.38,-0.13 -0.59,-0.54 -0.46,-0.92 0.13,-0.38 0.54,-0.58 0.92,-0.46 0.38,0.13 0.58,0.54 0.46,0.92z"/>
  </g>
 </g>
</svg>
