<svg xmlns="http://www.w3.org/2000/svg" xml:space="preserve" width="65" height="32" style="shape-rendering:geometricPrecision;text-rendering:geometricPrecision;image-rendering:optimizeQuality;fill-rule:evenodd;clip-rule:evenodd"><defs><style>.fil2,.fil3{fill:#121212;fill-rule:nonzero}.fil2{fill:#65d651}</style></defs><g id="Camada_x0020_1"><g id="_2929988913152"><path d="M32 .31c-7.61 0-13.78 6.17-13.78 13.78h27.56C45.78 6.48 39.61.31 32 .31zm0 1.07c6.63 0 12 5.38 12 12.01H20c0-6.63 5.37-12.01 12-12.01z" style="fill:#39b8ff;fill-rule:nonzero;fill-opacity:.501961"/><path d="M31.6 10.12h.8v1.39h-.8z" style="fill:#3d8231;fill-rule:nonzero"/><path d="m33.67 4.74.35-1.15c.02.01.04.02.07.02a.246.246 0 0 0 0-.49c-.13 0-.24.11-.24.24 0 .08.04.15.1.19l-.74.99c-.33-.1-.73-.16-1.21-.16-.47 0-.85.05-1.17.15l-.74-.98c.06-.04.1-.11.1-.19 0-.13-.11-.24-.24-.24s-.24.11-.24.24c0 .14.11.25.24.25.03 0 .05-.01.07-.02l.35 1.13c-2.09 1.15-.09 4.86.68 5.48.31.26.67.36.95.36.28 0 .64-.1.95-.36.77-.61 2.74-4.28.72-5.46z" class="fil2"/><path d="M34.26 6.87c.11.28-.21.68-.72.88-.51.21-1.02.14-1.13-.14-.12-.28.21-.68.72-.88.51-.21 1.02-.15 1.13.14zM31.63 7.61c.12-.28-.21-.68-.72-.88-.51-.21-1.02-.15-1.13.14-.11.28.21.68.72.88.51.21 1.02.14 1.13-.14z" class="fil3"/><path d="M34.02 6.79c.07.07.06.18 0 .23a.16.16 0 0 1-.23-.02c-.06-.07-.06-.18.01-.23.06-.06.16-.05.22.02z" style="fill:#4a4a4a;fill-rule:nonzero"/><path d="M29.76 13.38c0-1.24 1-2.24 2.24-2.24h.04c1.24 0 2.24 1 2.24 2.24h-4.52z" class="fil2"/><path d="M44 13.39H20c0-6.63 5.37-12.01 12-12.01s12 5.38 12 12.01z" style="fill:#39b8ff;fill-rule:nonzero;fill-opacity:.2"/><path d="M64.28 23.2H-.28c0-4.36 14.45-7.89 32.28-7.89 17.83 0 32.28 3.53 32.28 7.89z" style="fill:#fff;fill-rule:nonzero"/><path d="M-.28 23.8h64.56c0 4.36-14.45 7.89-32.28 7.89-17.83 0-32.28-3.53-32.28-7.89z" style="fill:#dedede;fill-rule:nonzero"/><path d="M47.1 16.4H16.9l1.32-2.31h27.56z" style="fill:#636363;fill-rule:nonzero"/><path d="M40.39 5.53c.81.81 1.23 1.71.93 2.01-.3.31-1.21-.11-2.02-.92-.81-.82-1.23-1.72-.93-2.02.3-.3 1.21.11 2.02.93z" style="fill:#fff;fill-rule:nonzero;fill-opacity:.301961"/><path d="M-.28 23.2h64.57v.61H-.28z" style="fill:#7d7d7d;fill-rule:nonzero"/></g></g></svg>