<svg xmlns="http://www.w3.org/2000/svg" xml:space="preserve" width="70" height="70" style="shape-rendering:geometricPrecision;text-rendering:geometricPrecision;image-rendering:optimizeQuality;fill-rule:evenodd;clip-rule:evenodd"><defs><style>.fil0,.fil3,.fil6{fill:#0a002a;fill-rule:nonzero}.fil0,.fil6{fill:#60aad1}.fil0{fill:#67b6df}.fil5,.fil7,.fil8{fill:#9a0c31;fill-rule:nonzero}.fil5,.fil8{fill:#af0f38}.fil5{fill:#cdcdcd}.fil1,.fil2,.fil4{fill:#dbdbdb;fill-rule:nonzero}.fil1,.fil4{fill:#fff}.fil1{fill:#230f52;fill-opacity:.101961}</style></defs><g id="Camada_x0020_1"><g id="_2929988542464"><path class="fil0" d="M13.21 33.41s-4.05-1.85-2.03-6.49l-1.21-2.16s-3.03 3.02-1.34 7.17c1.7 4.16 5.07 3.92 5.07 3.92l-.49-2.44z"/><path class="fil1" d="m9.97 24.76.21.38c-.78 1.14-1.94 3.5-.75 6.44 1.15 2.81 3.07 3.61 4.18 3.83l.09.44s-3.37.24-5.07-3.92c-1.69-4.15 1.34-7.17 1.34-7.17z"/><path class="fil2" d="M18.72 51.13c1.12 2.84 4.34 4.23 7.18 3.11l6.01-2.37a5.548 5.548 0 0 0 3.11-7.19l-5.86-14.8a5.528 5.528 0 0 0-7.18-3.11l-6.01 2.38c-2.84 1.12-4.23 4.33-3.11 7.18l5.86 14.8z"/><path class="fil1" d="M14 30.48a5.532 5.532 0 0 0-.28 4.68l5.85 14.8c1.13 2.84 4.34 4.24 7.18 3.11l6.01-2.37c.77-.31 1.43-.77 1.97-1.34a5.56 5.56 0 0 1-2.82 2.51l-6.01 2.37c-2.84 1.12-6.06-.27-7.18-3.11l-5.86-14.8c-.82-2.07-.3-4.33 1.14-5.85z"/><path class="fil2" d="M9.59 11.76c-2.82 6.61.8 14.5 8.09 17.61 7.29 3.12 15.5.29 18.32-6.33 2.83-6.61-.79-14.5-8.08-17.61-7.3-3.12-15.5-.29-18.33 6.33z"/><path class="fil3" d="M11.43 14.38c-2.64 6.17.39 13.4 6.79 16.13 6.38 2.73 13.71-.06 16.35-6.24 2.64-6.18-.4-13.4-6.79-16.14-6.39-2.73-13.71.07-16.35 6.25z"/><path class="fil4" d="M31.08 28.85c-3.84 3.66-9.93 5.23-16.81 1.1-6.54-3.92-8.17-10.3-5.13-17.4.92-2.14 2.28-3.95 3.94-5.35 0 0-7.32 13.35 3 19.7 9.39 5.78 15 1.95 15 1.95z"/><path class="fil2" d="m10.15 26.33 1.11-.77c.66-.48.48-1.87-.41-3.1-.89-1.24-2.15-1.85-2.81-1.37l-1.03.72 3.14 4.52z"/><path class="fil4" d="M7.01 21.81c-.66.48-.47 1.86.42 3.1.89 1.23 2.14 1.85 2.8 1.37.66-.47.48-1.86-.41-3.09-.89-1.24-2.15-1.86-2.81-1.38zM32.08 13.86s-.81-2.19-3.78-3.83c0 0-2.31-1.35-2.68-.5 0 0-.56.92 1.52 1.44 0 0 3.25.78 4.94 2.89zM50.28 27.08c-1.69.28-2.84 1.9-2.55 3.61l.26 1.58c.28 1.72 1.88 2.88 3.58 2.6 1.69-.28 2.83-1.9 2.55-3.62l-.26-1.57c-.29-1.72-1.89-2.88-3.58-2.6z"/><path class="fil4" d="M53.32 30.58c-.57.03-1 .52-.97 1.09.04.57.53 1 1.09.96l3.09-.19c.58-.03 1.01-.53.97-1.09-.04-.57-.52-1-1.09-.97l-3.09.2z"/><path class="fil4" d="M53.34 28.57c-.61.16-.98.73-.84 1.29.15.55.76.86 1.36.71l3.29-.86c.61-.16.98-.73.84-1.29-.15-.55-.75-.87-1.36-.71l-3.29.86z"/><path class="fil4" d="M51.64 27.29c-.51.36-.67 1.03-.34 1.5.32.46 1 .56 1.51.2l2.8-1.93c.52-.35.67-1.02.35-1.49-.32-.47-1-.56-1.52-.21l-2.8 1.93z"/><path class="fil4" d="M49.13 28.19c-.23.49 0 1.09.52 1.33.51.25 1.12.05 1.35-.45l1.27-2.67c.23-.5 0-1.09-.51-1.34-.52-.24-1.12-.04-1.36.45l-1.27 2.68zM52.32 31.89c-.51-.19-1.08.08-1.29.61-.2.53.05 1.12.55 1.32l2.77 1.06c.51.19 1.09-.08 1.29-.61.2-.54-.04-1.13-.55-1.32l-2.77-1.06z"/><path class="fil1" d="m53.48 28.53 1.99-1.88c.35-.37.55-.67.51-1.05.3.47.14 1.11-.37 1.46l-2.13 1.47zM51.94 27.09l.18-1.11c.06-.23.11-.6-.12-.76.79.66.06 1.57-.06 1.87zM51.42 34.46c.5-.08.94-.28 1.32-.56l1.47.56c.51.2 1.09-.08 1.29-.61.06-.16.08-.34.06-.51.16.27.2.61.08.93-.2.53-.78.8-1.29.61l-1.47-.57c-.38.28-.82.48-1.31.56-1.6.26-3.11-.75-3.52-2.31.55 1.32 1.93 2.14 3.37 1.9zM54 30.53l3.01-1.24c.59-.29.91-.63.86-1.13.05.08.09.17.12.26.14.56-.23 1.13-.84 1.29l-3.15.82zM54.95 32.54l-.8.05 2.24-.56c.59-.16 1-.53.97-1.1 0-.02-.01-.03-.01-.05a1.023 1.023 0 0 1-.82 1.56l-1.58.1z"/><path class="fil4" d="M47.33 34.6s-9.7 2.96-11.69-.33l2.57-6.64s3.15 1.88 8.19.97c0 0-.37.29.35 3.74l.58 2.26z"/><path class="fil1" d="m47.02 33.37.31 1.23s-9.7 2.96-11.69-.33l.34-.88c2.29 2.29 9.49.42 11.04-.02z"/><path class="fil4" d="M46.34 28.61c.02 0 .04 0 .06-.01 0 0-.03.02-.05.12-.01-.04-.01-.07-.01-.11z"/><path class="fil0" d="M47.07 28.12c-.59.11-.97.76-.84 1.45l.84 4.43c.13.69.72 1.16 1.31 1.05.6-.11.97-.76.84-1.45l-.83-4.44c-.13-.69-.72-1.15-1.32-1.04z"/><path class="fil1" d="M47.77 34.88c.59-.11.97-.76.84-1.45l-.84-4.44c-.07-.39-.29-.7-.58-.88.56-.03 1.08.41 1.2 1.05l.83 4.44c.13.69-.24 1.34-.84 1.45a.995.995 0 0 1-.73-.16c.04 0 .07 0 .12-.01z"/><path class="fil4" d="M35.08 25.2s-.78-.8-2.52-.76c-1.73.05-8.12.24-8.12.24s-1.96-.02-3.67 1.64-4.97 4.47-4.97 4.47-.94.81-.44 2.16c.5 1.36 5.25 12.29 5.25 12.29s.99 1.6.45 2.79.62 1.5.62 1.5.91.11.62 1.22c-.29 1.12 1.91 7.76 5.59 5.65 3.69-2.11 14.63-7.77 14.63-7.77s2.06-1.02.84-3.35c-1.23-2.33-2.02-1.19-1.48-3.32 0 0 .35-1.13-.42-1.55-.76-.42-.23-.85-.23-.85s.72-.46.4-1.2c-.32-.74 1.06-1.54-.94-2.39L35.08 25.2z"/><path class="fil1" d="m41.23 39.56-.07.07c.02-.66.87-1.38-.89-2.13l-5.61-10.76s-.78-.81-2.52-.76c-1.73.04-8.11.23-8.11.23s-1.97-.02-3.68 1.65c-1.71 1.66-4.97 4.46-4.97 4.46s-.06.06-.14.16c-.17-1.07.56-1.69.56-1.69s3.26-2.81 4.97-4.47c1.71-1.66 3.67-1.64 3.67-1.64s6.39-.19 8.12-.24c1.74-.04 2.52.76 2.52.76l5.61 10.77c2 .85.62 1.65.94 2.39.32.74-.4 1.2-.4 1.2zM42.94 46.81c-1.23-2.33-2.01-1.18-1.47-3.31 0 0 .34-1.14-.42-1.56-.77-.42-.24-.84-.24-.84s.46-.31.47-.81c.05.04.11.08.18.12.77.42.42 1.55.42 1.55-.54 2.13.25.99 1.48 3.32.66 1.26.36 2.13-.05 2.67-.04-.34-.15-.71-.37-1.14z"/><path class="fil5" d="M29.27 27.4 27.81 30c-.17.33-.21.75-.08 1.15l2.6 8.92c.25.76.91.96 1.71.96l7.64-.59c.42-.14.71-.47.83-.89l.87-1.8L29.27 27.4zM26.39 37.83c-.55.27-.69 1.11-.31 1.87.37.77 1.12 1.17 1.67.9.55-.27.69-1.11.31-1.87-.37-.77-1.12-1.17-1.67-.9zM25.11 32c-.46.22-.57.92-.26 1.56.32.63.94.97 1.4.74.45-.22.57-.92.25-1.55-.31-.64-.93-.98-1.39-.75z"/><path class="fil1" d="M27.85 39.01c-.37-.76-1.12-1.17-1.67-.9-.06.03-.12.08-.17.12.08-.17.21-.32.38-.4.55-.27 1.3.13 1.67.9.33.67.26 1.4-.13 1.75.19-.39.18-.95-.08-1.47zM26.3 33.03c-.32-.64-.94-.97-1.4-.75-.04.02-.09.05-.13.09.08-.17.19-.3.34-.37.46-.23 1.08.11 1.39.75.28.56.22 1.18-.12 1.46.14-.32.12-.76-.08-1.18z"/><path class="fil2" d="M32.11 37.83c.23.68.83.89 1.48.88l7.14-.39c.59-.2.89-.91.66-1.59l-3.03-9.22c-.23-.68-.76-.97-1.47-.88l-7.15.39c-.59.2-.89.91-.66 1.59l3.03 9.22zM27.11 38.45c-.35.18-.47.63-.28.99.2.36.63.51.98.33l2.78-1.47a.72.72 0 0 0 .28-.99c-.19-.37-.63-.52-.98-.33l-2.78 1.47z"/><path class="fil1" d="m27.11 38.45 2.78-1.47c.35-.19.79-.04.98.33.05.09.08.18.09.28a.742.742 0 0 0-.93-.25l-2.78 1.47c-.26.14-.39.42-.36.71-.02-.03-.04-.05-.06-.08-.19-.36-.07-.81.28-.99z"/><path class="fil3" d="M32.08 31.72c.12.37.55.56.97.42l4.39-.29c.42-.14.67-.55.55-.92l-.81-2.55c-.12-.37-.42-.48-.98-.42l-4.39.3c-.42.13-.66.54-.54.91l.81 2.55z"/><path class="fil4" d="M34.89 54.28s.69-.54-.32-2.67c-1-2.13-2.81-9.45-12.46-4.46l7.15 11.55s.94.9 1.85.3c.9-.6 3.78-4.72 3.78-4.72z"/><path class="fil0" d="m31.58 51.39-1.79-2.52c-.53-.74-.3-1.81.52-2.39.17-.12.37-.21.56-.27 2.12 1.26 2.99 3.73 3.55 5.06-.11.15-.25.3-.41.41-.81.58-1.9.45-2.43-.29z"/><path class="fil1" d="M33.92 55.34s.69-.54-.31-2.67c-.96-2.03-2.95-9.26-11.5-5.52 9.65-4.99 11.46 2.33 12.46 4.46 1.01 2.13.32 2.67.32 2.67s.07.15-.97 1.06c-.31.17 0 0 0 0z"/><path class="fil0" d="M39.79 65.81s-1.85.58-4.43-3.14c0 0-1.9-2.74-4.28-3.28 0 0-1.12-.02-.71-1.19.41-1.17 4.3-4.37 4.3-4.37s.33-.42 1.2.34c.87.75 2.28 1.85 3.37 4.26 0 0 .59-.48 2.78-2.74 2.2-2.26 3.12.41 3.12.41l-5.35 9.71z"/><path class="fil0" d="M39.79 65.81s-1.85.58-4.43-3.14c0 0-1.9-2.74-4.28-3.28 0 0-1.12-.02-.71-1.19.41-1.17 4.3-4.37 4.3-4.37s.33-.42 1.2.34c.87.75 2.28 1.85 3.37 4.26 0 0 .59-.48 2.78-2.74 2.2-2.26 3.12.41 3.12.41l-5.35 9.71z"/><path class="fil1" d="M44.2 56.76s-.61-1.79-2.04-1.2c2.1-2.02 2.98.54 2.98.54l-5.35 9.71s-.21.06-.58.01l4.99-9.06zM38.3 59.09c-1.09-2.42-2.5-3.51-3.37-4.26-.42-.37-.71-.46-.9-.46.38-.33.64-.54.64-.54s.33-.42 1.2.34c.85.74 2.22 1.8 3.3 4.11-.65.63-.87.81-.87.81z"/><path class="fil2" d="M39.45 62.8c-.65 1.25-.6 2.56.11 2.93.71.37 1.82-.34 2.47-1.59l2.85-5.48c.64-1.25.59-2.56-.12-2.93-.71-.37-1.81.34-2.46 1.59l-2.85 5.48z"/><path class="fil1" d="M45.04 56.69c-.71-.36-1.81.35-2.46 1.59l-2.86 5.49c-.3.59-.45 1.19-.44 1.71-.42-.55-.37-1.63.17-2.68l2.85-5.48c.65-1.25 1.75-1.96 2.46-1.59.38.19.56.65.57 1.22-.08-.1-.17-.2-.29-.26z"/><path class="fil4" d="M16.06 50.43c.67-1.61-.11-3.48-1.75-4.16l-1.5-.63c-1.64-.68-3.51.07-4.19 1.69-.67 1.61.11 3.48 1.75 4.16l1.5.62c1.64.69 3.52-.07 4.19-1.68z"/><path class="fil4" d="M11.39 51.17a1.054 1.054 0 0 0-1.85-1.01l-1.5 2.78c-.28.51-.09 1.15.42 1.43.51.27 1.15.08 1.43-.43l1.5-2.77z"/><path class="fil4" d="M13.11 52.27c.19-.61-.1-1.24-.66-1.42-.55-.17-1.16.18-1.35.79l-1.03 3.31c-.19.61.1 1.25.66 1.42.55.17 1.15-.18 1.35-.79l1.03-3.31z"/><path class="fil4" d="M15.13 51.49c-.03-.64-.52-1.13-1.1-1.1-.58.02-1.03.56-1 1.2l.16 3.46c.02.64.52 1.14 1.1 1.11.58-.03 1.03-.56 1-1.2l-.16-3.47z"/><path class="fil4" d="M15.71 48.84c-.3-.47-.94-.59-1.43-.28-.48.31-.64.95-.34 1.42l1.63 2.54c.3.47.94.59 1.43.28.49-.32.64-.95.34-1.42l-1.63-2.54zM10.79 49.59c.44-.33.52-.98.17-1.44-.35-.46-.99-.57-1.44-.24l-2.41 1.82c-.44.34-.52.98-.17 1.45.35.46.99.57 1.44.23l2.41-1.82z"/><path class="fil1" d="M16.4 52.35c.49-.31.65-.95.35-1.41l-1.08-1.69c.15-1.03-.22-2.06-.97-2.78 1.14.67 1.76 1.96 1.56 3.22l1.08 1.69c.3.47.15 1.1-.34 1.42-.49.31-1.13.19-1.43-.28l-.02-.04c.28.08.59.04.85-.13zM13.7 55.71c.58-.02.8-.3.99-1.2l.46-2.65c.05.09-.07-.06 0 0l.14 3.1c.03.64-.42 1.17-1 1.2-.37.02-.7-.18-.91-.49.1.03.21.05.32.04zM9.32 53.73l1.73-1.9-1.21 2.19c-.42.58-1.03.54-1.38.35-.16-.09-.29-.22-.38-.36.47.13.87.04 1.24-.28zM8.1 51.17l1.1-.38-.9.67c-.55.33-1.11.04-1.36-.28a.21.21 0 0 0-.04-.06c.3.08.53.27 1.2.05zM11.48 55.13l1.59-2.72-.99 3.17c-.2.61-.8.96-1.35.79-.24-.08-.43-.24-.55-.44.54.14.82.01 1.3-.8z"/><path class="fil4" d="m15.94 45.45-4.93-1.27s-.73-2.03 1.69-8.31l1.42-3.22a3.776 3.776 0 0 1 4.98-1.93c1.9.85 2.76 3.07 1.92 4.98 0 0-1.3 4.36-5.08 9.75z"/><path class="fil1" d="M19.32 35.47a3.78 3.78 0 0 0-1.92-4.98c-.07-.02-.13-.05-.19-.07.62-.06 1.27.03 1.89.3 1.9.85 2.76 3.07 1.92 4.98 0 0-1.3 4.36-5.08 9.75l-1.58-.4c3.69-5.31 4.96-9.58 4.96-9.58z"/><path class="fil0" d="M13.41 34.27c.36-.12.77-.13 1.18 0 .94.32 1.48 1.27 1.19 2.13l-.97 2.93c-.28.87-1.28 1.32-2.23 1a1.89 1.89 0 0 1-1.07-.88c.27-1 .65-2.18 1.19-3.58l.71-1.6zM9.62 44.96c-.14.59.3 1.2.97 1.37l4.39 1.07c.68.16 1.35-.18 1.5-.77.14-.59-.3-1.2-.98-1.36l-4.39-1.08c-.68-.16-1.34.18-1.49.77z"/><path class="fil1" d="M15.96 46.97c.14-.59-.3-1.2-.98-1.37l-4.38-1.07c-.27-.06-.54-.05-.77.03.28-.33.78-.49 1.28-.37l4.39 1.08c.68.16 1.12.77.98 1.36-.09.36-.37.62-.73.74.1-.11.17-.25.21-.4z"/><path class="fil4" d="M52.34 49.17s-4.12-8.62-12.63-6.82c-3.07.64-4.35 1.28-4.35 1.28l1.25 7.12s6.94.53 10.84 3.56c0 0 .92.6 1.59.12l3.3-5.26z"/><path class="fil0" d="m49.17 47.36-2.44-1.9c-.67-.53-.78-1.53-.27-2.3 2.2 1.09 3.77 2.83 4.73 4.16-.61.45-1.44.5-2.02.04z"/><path class="fil1" d="M39.86 43.16c-2.23.24-3.84.22-4.5.47 0 0 1.28-.64 4.35-1.28 8.51-1.8 12.63 6.82 12.63 6.82l-.61.97c-.79-1.45-4.65-7.78-11.87-6.98z"/><path class="fil0" d="M57.85 60.74s-1.86.58-4.44-3.15c0 0-1.68-1.81-4.06-2.35 0 0-1.01-.27-.6-1.44.41-1.18 3.26-4.84 3.26-4.84s.33-.41 1.2.34c.86.76 2.99 1.65 4.08 4.06 0 0 .59-.48 2.79-2.74 2.19-2.26 3.11.41 3.11.41l-5.34 9.71z"/><path class="fil1" d="M62.62 51.69s-.92-2.68-3.11-.42c-2.2 2.26-2.41 2.64-2.41 2.64-1.09-2.41-3.6-3.19-4.46-3.95-.57-.49-.9-.49-1.07-.43l.44-.57s.33-.41 1.2.34c.86.76 2.99 1.65 4.08 4.06 0 0 .59-.48 2.79-2.74 2.19-2.26 3.11.41 3.11.41l-5.34 9.71s-.09.02-.23.03l5-9.08z"/><path class="fil2" d="M57.5 57.73c-.65 1.25-.6 2.56.11 2.93.72.37 1.82-.34 2.47-1.59l2.85-5.48c.65-1.25.6-2.56-.11-2.93-.72-.37-1.82.34-2.47 1.59l-2.85 5.48z"/><path class="fil1" d="M63 51.67c-.71-.37-1.81.34-2.46 1.59l-2.86 5.48a3.97 3.97 0 0 0-.44 1.54c-.32-.58-.24-1.58.26-2.55l2.85-5.48c.65-1.25 1.75-1.96 2.47-1.59.4.21.59.74.55 1.39a.851.851 0 0 0-.37-.38z"/><path class="fil2" d="M25.65 32.43c-.29.16-.39.53-.23.83.16.31.52.43.81.28l2.32-1.23c.29-.15.39-.52.23-.83a.607.607 0 0 0-.81-.27l-2.32 1.22z"/><path class="fil1" d="M28.77 31.87a.607.607 0 0 0-.81-.27l-2.32 1.22c-.13.07-.21.19-.26.31-.08-.27.02-.56.27-.7l2.32-1.22c.29-.15.65-.03.81.27.09.17.09.36.03.52-.01-.04-.02-.09-.04-.13z"/><path class="fil6" d="M32.22 33.84a.966.966 0 0 0 .48 1.28c.49.23 1.07.01 1.29-.48l.13-.35-1.82-.68-.08.23z"/><path class="fil0" d="M32.3 33.61c-.19.43.04.96.53 1.18.49.22 1.05.06 1.24-.38.2-.43-.03-.96-.52-1.18-.49-.22-1.05-.05-1.25.38z"/><path class="fil7" d="M34.15 37.06a.76.76 0 0 0 .37 1.01c.38.17.83 0 1.01-.38l.1-.28-1.42-.53-.06.18z"/><path class="fil8" d="M34.21 36.88c-.15.34.03.75.42.93.38.17.81.04.97-.3.15-.33-.04-.75-.42-.92-.38-.18-.81-.05-.97.29z"/><path class="fil7" d="M37.4 36.82c-.17.38 0 .83.38 1.01.38.17.83 0 1-.38l.1-.27-1.41-.54-.07.18z"/><path class="fil8" d="M37.47 36.64c-.15.34.03.75.41.93.38.17.82.04.97-.3.15-.33-.03-.75-.41-.92-.38-.18-.82-.04-.97.29z"/><path class="fil6" d="M37.2 33.53c-.23.48-.01 1.06.48 1.29.49.22 1.06 0 1.29-.49l.13-.35-1.82-.68-.08.23z"/><path class="fil0" d="M37.28 33.3c-.19.43.04.96.53 1.18.49.22 1.05.06 1.24-.38.2-.43-.04-.96-.53-1.18-.49-.22-1.04-.05-1.24.38z"/><path class="fil6" d="M34.81 33.67a.965.965 0 0 0 .48 1.29.98.98 0 0 0 1.29-.48l.13-.35-1.82-.69-.08.23z"/><path class="fil0" d="M34.89 33.44c-.19.44.04.97.53 1.19.49.22 1.04.05 1.24-.38.2-.43-.04-.96-.53-1.18-.49-.22-1.04-.06-1.24.37z"/><path class="fil4" d="M24.37 9.7a.727.727 0 0 1-1.38-.46c.13-.38.54-.58.92-.46.38.13.58.54.46.92z"/></g></g></svg>