<svg xmlns="http://www.w3.org/2000/svg" xmlns:xlink="http://www.w3.org/1999/xlink" width="50" zoomAndPan="magnify" viewBox="0 0 1525.5 1535.999932" height="40" preserveAspectRatio="xMidYMid meet" version="1.0"><path fill="#5c69e5" d="M 1042.644531 78.265625 L 482.355469 78.265625 C 446.238281 78.265625 413.421875 93.019531 389.65625 116.78125 C 365.890625 140.554688 351.132812 173.371094 351.132812 209.484375 L 351.132812 1326.507812 C 351.132812 1362.628906 365.890625 1395.441406 389.65625 1419.207031 C 413.421875 1442.976562 446.230469 1457.730469 482.355469 1457.730469 L 1042.644531 1457.730469 C 1078.769531 1457.730469 1111.578125 1442.976562 1135.347656 1419.207031 C 1159.109375 1395.441406 1173.875 1362.628906 1173.875 1326.507812 L 1173.875 209.484375 C 1173.875 173.371094 1159.109375 140.554688 1135.347656 116.792969 C 1111.578125 93.019531 1078.769531 78.265625 1042.644531 78.265625 Z M 708.914062 1330.5 L 816.09375 1330.5 C 834.054688 1330.5 848.75 1345.199219 848.75 1363.164062 C 848.75 1381.128906 834.054688 1395.828125 816.09375 1395.828125 L 708.914062 1395.828125 C 690.941406 1395.828125 676.25 1381.128906 676.25 1363.164062 C 676.25 1345.199219 690.941406 1330.5 708.914062 1330.5 Z M 630.886719 151.121094 C 642.796875 151.121094 652.453125 160.777344 652.453125 172.6875 C 652.453125 184.597656 642.796875 194.246094 630.886719 194.246094 C 618.976562 194.246094 609.324219 184.597656 609.324219 172.6875 C 609.324219 160.777344 618.976562 151.121094 630.886719 151.121094 Z M 894.121094 194.246094 C 906.019531 194.246094 915.679688 184.597656 915.679688 172.6875 C 915.679688 160.777344 906.019531 151.121094 894.121094 151.121094 L 696.363281 151.121094 C 684.457031 151.121094 674.804688 160.777344 674.804688 172.6875 C 674.804688 184.597656 684.457031 194.246094 696.363281 194.246094 Z M 415.828125 272.070312 L 1109.175781 272.070312 L 1109.175781 1268.597656 L 415.828125 1268.597656 L 415.828125 272.070312 " fill-opacity="1" fill-rule="evenodd"/></svg>